{"title":"Community S05E12 HDTV x264 AAC [GWC].mp4","uid":9938882,"size":77865921,"categoryP":"video","categoryS":"tv_shows","magnet":"?xt=urn:btih:004488170255db9a0b9d4028a9d4a4bbff120ca3&amp;dn=Community+S05E12+HDTV+x264+AAC+%5BGWC%5D.mp4&amp;tr=udp%3A%2F%2Ftracker.openbittorrent.com%3A80&amp;tr=udp%3A%2F%2Fopen.demonii.com%3A1337&amp;tr=udp%3A%2F%2Ftracker.coppersurfer.tk%3A6969&amp;tr=udp%3A%2F%2Fexodus.desync.com%3A6969","seeders":5,"leechers":0,"uploader":"canc232","files":1,"time":1397196043,"description":"Community S05E12 HDTV x264 AAC [GWC]\n\n\nSTORYLINE :\nA lawyer is scuppered when it is discovered that he has falsely claimed to have a bachelor's degree. He is suspended and enrolls himself into Community college. He forms a study group so that he can get closer to an attractive student. The study group includes a millionaire, a former drug addict, a former quarter-back, a single mother, and a film student. \n\n\nSCREENS : &lt;a href=&quot;\nhttp://i.imgur.com/5lGYCqW.jpg&quot; rel=&quot;nofollow&quot; target=&quot;_NEW&quot;&gt;\nhttp://i.imgur.com/5lGYCqW.jpg&lt;/a&gt; &lt;a href=&quot;\nhttp://i.imgur.com/14tZsKA.jpg&quot; rel=&quot;nofollow&quot; target=&quot;_NEW&quot;&gt;\nhttp://i.imgur.com/14tZsKA.jpg&lt;/a&gt; &lt;a href=&quot;\nhttp://i.imgur.com/UM7kHgW.jpg&quot; rel=&quot;nofollow&quot; target=&quot;_NEW&quot;&gt;\nhttp://i.imgur.com/UM7kHgW.jpg&lt;/a&gt;\n\n\nMEDIA INFO :\nGeneral \nFormat : MPEG-4 \nFormat profile : Base Media \nFile size : 74.3 MiB \nDuration : 21mn 13s \nOverall bit rate mode : Variable \nOverall bit rate : 489 Kbps \n\nVideo \nFormat : AVC \nFormat profile : &lt;a class=&quot;__cf_email__&quot; href=&quot;/cdn-cgi/l/email-protection&quot; data-cfemail=&quot;b4fcddd3dcf4f8879a84&quot;&gt;[email&amp;#160;protected]&lt;/a&gt;&lt;script cf-hash='f9e31' type=&quot;text/javascript&quot;&gt;\n/* &lt;![CDATA[ */!function(){try{var t=&quot;currentScript&quot;in document?document.currentScript:function(){for(var t=document.getElementsByTagName(&quot;script&quot;),e=t.length;e--;)if(t[e].getAttribute(&quot;cf-hash&quot;))return t[e]}();if(t&amp;&amp;t.previousSibling){var e,r,n,i,c=t.previousSibling,a=c.getAttribute(&quot;data-cfemail&quot;);if(a){for(e=&quot;&quot;,r=parseInt(a.substr(0,2),16),n=2;a.length-n;n+=2)i=parseInt(a.substr(n,2),16)^r,e+=String.fromCharCode(i);e=document.createTextNode(e),c.parentNode.replaceChild(e,c)}}}catch(u){}}();/* ]]&gt; */&lt;/script&gt; \nFormat settings, CABAC : No \nFormat settings, ReFrames : 4 frames \nDuration : 21mn 13s \nBit rate : 426 Kbps \nMaximum bit rate : 2 015 Kbps \nWidth : 720 pixels \nHeight : 400 pixels \nDisplay aspect ratio : 16:9 \nFrame rate mode : Constant \nFrame rate : 23.976 fps \nStream size : 64.6 MiB (87%) \nTitle : Community S05E12 HDTV x264 AAC [GWC] \nWriting library : x264 core\n\nAudio \nID : 2 \nFormat : AAC \nFormat profile : HE-AAC / LC \nDuration : 21mn 13s \nBit rate mode : Variable \nChannel(s) : 2 channels \nSampling rate : 48.0 KHz / 24.0 KHz \nStream size : 9.11 MiB (12%) \nLanguage : English ","torrent":{"xt":"urn:btih:004488170255db9a0b9d4028a9d4a4bbff120ca3","amp;dn":"Community+S05E12+HDTV+x264+AAC+%5BGWC%5D.mp4","amp;tr":["udp%3A%2F%2Ftracker.openbittorrent.com%3A80","udp%3A%2F%2Fopen.demonii.com%3A1337","udp%3A%2F%2Ftracker.coppersurfer.tk%3A6969","udp%3A%2F%2Fexodus.desync.com%3A6969"],"infoHash":"004488170255db9a0b9d4028a9d4a4bbff120ca3","infoHashBuffer":{"type":"Buffer","data":[0,68,136,23,2,85,219,154,11,157,64,40,169,212,164,187,255,18,12,163]},"announce":[],"urlList":[]}}